# xmcd
# 
# Track frame offsets:
#     150
#     24948
#     46682
#     75155
#     100384
#     122659
#     148004
#     172666
#     195703
#     217395
#     243773
#     267677
# 
# Disc length: 3938
# 
# Revision: 1
# Processed by: cddbd v1.5.2PL0 Copyright (c) Steve Scherf et al.
# Submitted via: BonkEnc v1.0.6
# 
DISCID=9d0f600c
DTITLE=Hattan - Koleksi Terbaik Hattan
DYEAR=2002
DGENRE=Pop
TTITLE0=Dewi
TTITLE1=Meniti Perjalanan
TTITLE2=Biso Bonar
TTITLE3=Rona-Rona Cinta
TTITLE4=Arca
TTITLE5=Rendang Tak Berbuah
TTITLE6=Mahligai Syahdu
TTITLE7=Setahun Sudah Berlalu
TTITLE8=Samba Apa Saja
TTITLE9=Dari Kekasih Buat Kekasih
TTITLE10=Rindu Bertandang Lagi
TTITLE11=Sekuntum Mawar Merah Sebuah Puisi
EXTD=
EXTT0=
EXTT1=
EXTT2=
EXTT3=
EXTT4=
EXTT5=
EXTT6=
EXTT7=
EXTT8=
EXTT9=
EXTT10=
EXTT11=
PLAYORDER=
